<svg width="502" height="695" viewBox="0 0 502 695" fill="none" xmlns="http://www.w3.org/2000/svg">
<path d="M216.073 0.134786C217.474 -1.26632 232.185 8.68101 234.498 10.293C289.774 48.755 328.657 112.088 314.436 181.445C287.323 313.155 104.47 351.267 128.43 511.49C134.665 553.105 165.561 613.566 206.686 629.89C207.597 630.311 212.36 632.831 212.43 630.52C212.429 629.607 206.194 617.139 205.144 614.196C185.107 556.678 190.852 483.887 221.327 430.993C243.606 392.321 280.106 366.119 309.881 333.683C349.184 290.877 380.08 239.524 373.284 178.713C374.615 177.102 374.826 177.872 376.087 178.713C380.501 181.796 389.398 191.534 393.251 195.947C426.459 233.639 441.451 283.801 428.91 333.192C410.625 405.142 338.606 449.139 299.863 509.599C265.336 563.527 254.682 631.528 272.104 693.443C151.238 702.465 34.3304 615.827 7.92978 497.829C-12.5973 406.403 22.0115 326.887 83.3126 261.172C131.583 209.329 199.609 166.453 219.226 94.4326C227.843 62.7665 224.831 31.4507 216.073 0.134786ZM272.19 693.502H272.12C272.115 693.482 272.109 693.463 272.104 693.443C272.156 693.439 272.208 693.437 272.26 693.433L272.19 693.502ZM481.595 363.596C516.904 436.246 504.364 522.278 459.667 587.713C428.911 632.76 383.513 664.777 332.511 683.482C329.498 683.342 330.129 664.286 330.199 661.273C331.25 635.982 339.026 605.857 349.675 582.948C373.985 530.965 424.147 499.929 452.311 450.889C467.653 424.267 475.64 395.332 479.564 364.927L481.525 363.666H481.595V363.596Z" fill="#4177A6"/>
</svg>
