<svg width="128" height="25" viewBox="0 0 128 25" fill="none" xmlns="http://www.w3.org/2000/svg">
<g clip-path="url(#clip0_168_291)">
<path d="M127.195 10.4677C126.655 9.46196 125.927 8.69092 125.01 8.14617C124.11 7.58466 123.091 7.29971 121.96 7.29971C121.094 7.29971 120.315 7.4757 119.612 7.8277C118.91 8.17969 118.319 8.6574 117.83 9.25244C117.607 9.52063 117.419 9.81395 117.265 10.1157V2.09521H115.56V20.5079H117.265V17.9098C117.428 18.2032 117.599 18.4797 117.805 18.7395C118.293 19.3597 118.884 19.8374 119.587 20.1894C120.306 20.5247 121.103 20.6923 121.96 20.6923C123.151 20.6923 124.187 20.3989 125.096 19.8207C126.012 19.2172 126.723 18.4211 127.229 17.4154C127.752 16.3929 128.009 15.2531 128.009 13.9792C128.009 12.6383 127.734 11.4734 127.203 10.4677H127.195ZM125.704 16.6527C125.31 17.4237 124.761 18.0439 124.059 18.5049C123.373 18.9491 122.585 19.167 121.686 19.167C120.786 19.167 119.989 18.9491 119.312 18.5049C118.627 18.0439 118.087 17.4321 117.693 16.6527C117.316 15.8817 117.128 14.9849 117.128 13.9876C117.128 12.9903 117.316 12.0935 117.693 11.3225C118.087 10.5515 118.627 9.93967 119.312 9.49548C119.998 9.0513 120.786 8.8334 121.686 8.8334C122.585 8.8334 123.382 9.0513 124.059 9.49548C124.761 9.93967 125.31 10.5431 125.704 11.3225C126.098 12.0935 126.295 12.9903 126.295 13.9876C126.295 14.9849 126.098 15.8817 125.704 16.6527Z" fill="#ffffff"/>
<path d="M110.745 14.0965C110.745 15.2782 110.59 16.242 110.282 17.0047C109.991 17.759 109.571 18.3289 109.014 18.6976C108.457 19.0664 107.78 19.2507 106.984 19.2507C106.247 19.2507 105.63 19.0999 105.15 18.7982C104.662 18.4797 104.293 18.0188 104.045 17.3986C103.788 16.7616 103.668 15.9738 103.668 15.0184V7.48407H101.963V15.5967C101.963 16.7449 102.143 17.6919 102.503 18.4546C102.88 19.1921 103.411 19.762 104.096 20.1475C104.782 20.5163 105.587 20.7006 106.529 20.7006C107.626 20.7006 108.586 20.4324 109.391 19.9128C109.956 19.5357 110.402 19.0328 110.745 18.4127V20.5246H112.45V7.49245H110.745V14.0965Z" fill="#ffffff"/>
<path d="M94.7746 7.29971C94.0378 7.29971 93.361 7.4338 92.7441 7.69361C92.1444 7.96179 91.6303 8.33893 91.1762 8.8334C90.9621 9.07644 90.7736 9.35301 90.6108 9.64634V2.09521H88.8801V20.5079H90.6108V14.063C90.6108 12.2109 90.9449 10.8616 91.6132 10.0235C92.2986 9.17701 93.2153 8.75797 94.372 8.75797C95.5286 8.75797 96.2911 9.10158 96.8309 9.78881C97.3878 10.476 97.6705 11.5404 97.6705 12.9903V20.5246H99.3754V12.3869C99.3754 10.7107 98.9728 9.45358 98.1588 8.60712C97.3706 7.74389 96.2397 7.31647 94.7832 7.31647L94.7746 7.29971Z" fill="#ffffff"/>
<path d="M84.2623 7.98696C83.5768 7.49249 82.6687 7.24945 81.5378 7.24945C80.7667 7.24945 80.047 7.40869 79.3787 7.72716C78.7276 8.04563 78.1621 8.54848 77.6738 9.23571C77.6481 9.26923 77.6224 9.31113 77.5967 9.35304C77.5281 9.22733 77.451 9.10999 77.3739 9.00104C76.937 8.38086 76.4143 7.94506 75.7803 7.67687C75.1463 7.39192 74.4781 7.24945 73.7498 7.24945C73.2786 7.24945 72.8159 7.3165 72.3447 7.45897C71.8906 7.58468 71.4708 7.80259 71.0767 8.12106C70.6826 8.42277 70.3313 8.82505 70.0229 9.33628C70.0229 9.35304 70.0058 9.3698 69.9972 9.38656V7.48411H66.9985V20.5079H69.9972V13.7697C69.9972 12.8897 70.1086 12.1606 70.3228 11.574C70.537 10.9705 70.854 10.5264 71.2652 10.2246C71.6764 9.92293 72.1819 9.77208 72.7817 9.77208C73.5356 9.77208 74.1268 10.0403 74.538 10.5599C74.9493 11.0879 75.1635 11.8924 75.1635 12.9652V20.4995H78.1621V13.7614C78.1621 12.8814 78.2649 12.1439 78.462 11.5404C78.6762 10.937 78.9846 10.5012 79.3787 10.2163C79.7728 9.91455 80.2698 9.7637 80.8609 9.7637C81.4178 9.7637 81.8805 9.89779 82.2403 10.1576C82.6001 10.4006 82.8657 10.7778 83.02 11.2639C83.1999 11.7583 83.2941 12.3618 83.2941 13.0909V20.4912H86.2928V12.3785C86.2928 11.4818 86.13 10.6437 85.8044 9.87265C85.4789 9.08485 84.9648 8.44791 84.2623 7.9702V7.98696Z" fill="#ffffff"/>
<path d="M63.4173 7.24945C62.8005 7.24945 62.1836 7.41707 61.5496 7.7523C60.9327 8.07077 60.4187 8.51496 59.9817 9.10161C59.9046 9.20218 59.8361 9.31951 59.7675 9.42847V7.49249H56.7432V20.5163H59.7418V14.7587C59.7418 14.0547 59.759 13.5099 59.7932 13.116C59.8446 12.7137 59.9217 12.3869 60.0074 12.1355C60.1531 11.6745 60.3673 11.3058 60.6586 11.0292C60.9499 10.7275 61.2754 10.5096 61.6267 10.3671C62.0037 10.2246 62.3806 10.1576 62.7576 10.1576C63.0489 10.1576 63.3402 10.1995 63.6486 10.2917C63.9742 10.3587 64.2312 10.4593 64.4283 10.585L65.8848 7.94506C65.4478 7.70202 65.0366 7.51764 64.6425 7.41707C64.2484 7.3165 63.8371 7.25783 63.4002 7.25783L63.4173 7.24945Z" fill="#ffffff"/>
<path d="M48.7753 7.24945C47.6273 7.24945 46.5649 7.42545 45.5882 7.77744C44.62 8.11268 43.6947 8.67419 42.8294 9.47037L44.5087 11.398C45.0827 10.8364 45.7167 10.4174 46.4021 10.1576C47.1046 9.87265 47.8158 9.73017 48.5354 9.73017C49.4693 9.73017 50.1975 9.94808 50.7202 10.3923C51.2428 10.8197 51.4998 11.4482 51.4998 12.2947V12.6635H47.5587C46.9247 12.6635 46.325 12.7221 45.751 12.8478C45.1769 12.9568 44.6714 13.1412 44.2345 13.401C43.729 13.7027 43.3178 14.1133 42.9922 14.6413C42.6838 15.1693 42.5295 15.7979 42.5295 16.5186C42.5295 17.3651 42.7352 18.1026 43.155 18.7396C43.5919 19.3765 44.1831 19.8626 44.937 20.223C45.7081 20.575 46.5906 20.751 47.5844 20.751C48.3555 20.751 49.0666 20.6001 49.7178 20.2984C50.3689 19.9799 50.9258 19.519 51.397 18.8988C51.4484 18.8318 51.4913 18.7479 51.5427 18.6809L51.7226 20.5163H54.4813V12.3031C54.4813 10.7191 53.9759 9.48713 52.9649 8.60715C51.9796 7.7104 50.5831 7.25783 48.7753 7.25783V7.24945ZM51.02 16.7868C50.6945 17.2813 50.2661 17.6668 49.7263 17.9518C49.2037 18.2367 48.6211 18.3792 47.97 18.3792C47.2332 18.3792 46.6334 18.22 46.1879 17.9015C45.751 17.5662 45.5368 17.1221 45.5368 16.5522C45.5368 16.2672 45.5882 16.0242 45.6996 15.8147C45.8281 15.6051 45.9823 15.4291 46.1622 15.2867C46.4107 15.1274 46.702 15.0185 47.0275 14.9682C47.3531 14.9011 47.6787 14.8592 47.9957 14.8592H51.5084V15.1274C51.5084 15.7476 51.3456 16.3007 51.02 16.7952V16.7868Z" fill="#ffffff"/>
<path d="M36.2751 15.9655L33.5677 7.48407H31.006L28.3072 16.0157L25.9254 7.48407H22.7383L26.7908 20.5079H29.5238L32.2997 11.6326L35.0842 20.5079H37.783L41.8612 7.48407H38.674L36.2751 15.9655Z" fill="#ffffff"/>
<path d="M9.95566 24.9746C5.5005 25.3015 1.191 22.1838 0.222859 17.9264C-0.53109 14.6327 0.745483 11.7665 2.99876 9.40308C4.78082 7.53415 7.28257 5.99208 8.00224 3.39403C8.31925 2.25423 8.20787 1.12282 7.8823 -0.000208787C7.9337 -0.0504937 8.47346 0.309882 8.55914 0.368548C10.5982 1.75138 12.029 4.03097 11.5064 6.53683C10.5126 11.2804 3.76985 12.6548 4.66088 18.4208C4.8922 19.921 6.0317 22.1 7.53959 22.6867C7.57386 22.7034 7.74522 22.7956 7.75378 22.7118C7.75378 22.6783 7.52246 22.2257 7.48819 22.1252C6.75137 20.0551 6.957 17.4319 8.08792 15.5295C8.91041 14.1382 10.247 13.1912 11.3522 12.0263C12.8001 10.4842 13.9396 8.63204 13.6826 6.44465C13.734 6.38598 13.7425 6.41112 13.7854 6.44465C13.9482 6.5536 14.2737 6.90559 14.4194 7.06483C15.6445 8.42252 16.1929 10.2328 15.7302 12.0095C15.0534 14.5992 12.406 16.1832 10.9752 18.3622C9.7072 20.3065 9.31309 22.7537 9.95566 24.983V24.9746Z" fill="#ffffff"/>
<path d="M17.6577 13.0908C18.96 15.7056 18.4973 18.8065 16.8524 21.1616C15.7214 22.7874 14.0507 23.9356 12.1659 24.6145C12.0545 24.6145 12.0802 23.9188 12.0802 23.8183C12.123 22.9048 12.4058 21.8236 12.7999 20.9939C13.6909 19.1166 15.5415 18.002 16.5782 16.2336C17.1437 15.2782 17.435 14.2306 17.5806 13.1327L17.6491 13.0908H17.6577Z" fill="#ffffff"/>
</g>
<defs>
<clipPath id="clip0_168_291">
<rect width="128" height="25" fill="white"/>
</clipPath>
</defs>
</svg>
